<?xml version="1.0" encoding="UTF-8" standalone="no"?>
<svg
   version="1.1"
   viewBox="0 0 255.99999 256"
   id="svg3"
   sodipodi:docname="ttscards mark.svg"
   width="256"
   height="256"
   inkscape:version="1.3.2 (091e20e, 2023-11-25, custom)"
   xmlns:inkscape="http://www.inkscape.org/namespaces/inkscape"
   xmlns:sodipodi="http://sodipodi.sourceforge.net/DTD/sodipodi-0.dtd"
   xmlns="http://www.w3.org/2000/svg"
   xmlns:svg="http://www.w3.org/2000/svg">
  <defs
     id="defs3" />
  <sodipodi:namedview
     id="namedview3"
     pagecolor="#ffffff"
     bordercolor="#000000"
     borderopacity="0.25"
     inkscape:showpageshadow="2"
     inkscape:pageopacity="0.0"
     inkscape:pagecheckerboard="0"
     inkscape:deskcolor="#d1d1d1"
     inkscape:zoom="1.5942427"
     inkscape:cx="297.63348"
     inkscape:cy="254.98"
     inkscape:window-width="1920"
     inkscape:window-height="1009"
     inkscape:window-x="-8"
     inkscape:window-y="-8"
     inkscape:window-maximized="1"
     inkscape:current-layer="svg3" />
  <!-- Generator: Adobe Illustrator 28.7.1, SVG Export Plug-In . SVG Version: 1.2.0 Build 142)  -->
  <g
     id="g3"
     transform="matrix(0.46688771,0,0,0.46688771,-11.894716,12.108729)">
    <g
       id="Layer_2">
      <path
         d="M 298.62,437.26 112.33,470.92 C 98.52,473.4 85.3,464.25 82.83,450.44 L 25.89,135.37 c -2.51,-13.81 6.67,-27.03 20.48,-29.5 L 177.08,82.24 85.43,293.58 c -5.91,12.73 2.79,34.2 15.53,40.11 l 197.66,103.56 z"
         id="path1" />
      <path
         d="M 106.47,299.15 217.18,43.09 c 5.88,-13.61 20.87,-20.82 35.18,-16.92 L 384,62.02 c 13.6,3.7 20.6,18.74 14.69,31.53 l -25.06,54.21 z"
         id="path2" />
      <path
         d="M 116.69,319.29 370.84,173.56 c 6.88,-3.91 20.66,-4.46 27.95,-1.36 l 48.4,24.13 c 9.59,4.08 18.42,19.02 9.37,24.22 l -86.77,48.3 -30.64,-15.42 -61.17,35.79 91.98,45.88 61.42,-35.64 -40.17,-19.9 90.35,-50.2 c 10.95,-6.43 21.84,-3.42 33.49,1.64 l 50.25,24.95 c 13.05,5.67 9.97,33.3 -1.89,41.17 l -191.09,109.9 c -16.32,8.53 -48.71,15.74 -65.18,7.5 L 116.68,319.29 Z"
         id="path3" />
    </g>
  </g>
</svg>
