<?xml version="1.0" encoding="UTF-8"?>
<svg xmlns="http://www.w3.org/2000/svg" version="1.1" viewBox="0 0 2376.71 509.96">
  <defs>
    <style>
      .cls-1 {
        fill: #fff;
      }
    </style>
  </defs>
  <!-- Generator: Adobe Illustrator 28.7.1, SVG Export Plug-In . SVG Version: 1.2.0 Build 142)  -->
  <g>
    <g id="Layer_2">
      <g>
        <path d="M-333.1,437.26l-186.29,33.66c-13.81,2.48-27.03-6.67-29.5-20.48l-56.94-315.06c-2.51-13.81,6.67-27.03,20.48-29.5l130.71-23.63-91.65,211.34c-5.91,12.73,2.79,34.2,15.53,40.11l197.66,103.56Z"/>
        <path d="M-525.25,299.15L-414.54,43.09c5.88-13.61,20.87-20.82,35.18-16.92l131.64,35.85c13.6,3.7,20.6,18.74,14.69,31.53l-25.06,54.21-267.16,151.39Z"/>
        <path d="M-515.03,319.29l254.15-145.73c6.88-3.91,20.66-4.46,27.95-1.36l48.4,24.13c9.59,4.08,18.42,19.02,9.37,24.22l-86.77,48.3-30.64-15.42-61.17,35.79,91.98,45.88,61.42-35.64-40.17-19.9,90.35-50.2c10.95-6.43,21.84-3.42,33.49,1.64l50.25,24.95c13.05,5.67,9.97,33.3-1.89,41.17l-191.09,109.9c-16.32,8.53-48.71,15.74-65.18,7.5l-190.46-95.23Z"/>
      </g>
      <g>
        <path d="M332.52,437.26l-186.29,33.66c-13.81,2.48-27.03-6.67-29.5-20.48L59.79,135.37c-2.51-13.81,6.67-27.03,20.48-29.5l130.71-23.63-91.65,211.34c-5.91,12.73,2.79,34.2,15.53,40.11l197.66,103.56Z"/>
        <path d="M140.37,299.15L251.08,43.09c5.88-13.61,20.87-20.82,35.18-16.92l131.64,35.85c13.6,3.7,20.6,18.74,14.69,31.53l-25.06,54.21-267.16,151.39Z"/>
        <path d="M150.59,319.29l254.15-145.73c6.88-3.91,20.66-4.46,27.95-1.36l48.4,24.13c9.59,4.08,18.42,19.02,9.37,24.22l-86.77,48.3-30.64-15.42-61.17,35.79,91.98,45.88,61.42-35.64-40.17-19.9,90.35-50.2c10.95-6.43,21.84-3.42,33.49,1.64l50.25,24.95c13.05,5.67,9.97,33.3-1.89,41.17l-191.09,109.9c-16.32,8.53-48.71,15.74-65.18,7.5l-190.46-95.23Z"/>
      </g>
      <rect x="-624.26" y="555.7" width="580.35" height="580.35"/>
      <path class="cls-1" d="M-328.3,1023.91l-175.44,31.7c-13.01,2.33-25.45-6.28-27.78-19.29l-53.63-296.72c-2.36-13.01,6.28-25.45,19.29-27.78l123.1-22.25-86.32,199.04c-5.56,11.99,2.63,32.21,14.63,37.77l186.15,97.53Z"/>
      <path class="cls-1" d="M-509.26,893.84l104.27-241.15c5.54-12.81,19.66-19.61,33.13-15.94l123.98,33.77c12.8,3.49,19.4,17.65,13.83,29.69l-23.6,51.06-251.6,142.58Z"/>
      <path class="cls-1" d="M-499.63,912.81l239.35-137.25c6.48-3.68,19.46-4.2,26.32-1.28l45.59,22.72c9.04,3.85,17.34,17.91,8.83,22.81l-81.71,45.49-28.86-14.52-57.6,33.71,86.63,43.21,57.85-33.57-37.84-18.74,85.09-47.28c10.32-6.06,20.57-3.22,31.54,1.54l47.32,23.5c12.29,5.34,9.39,31.36-1.78,38.77l-179.97,103.5c-15.37,8.04-45.87,14.82-61.39,7.06l-179.37-89.69Z"/>
      <g>
        <path d="M683.38,127.67h185.59c2.89,0,5.24,2.34,5.24,5.24v26.16c0,2.89-2.34,5.24-5.24,5.24h-66.53c-2.89,0-5.24,2.34-5.24,5.24v195.09c0,2.89-2.34,5.24-5.24,5.24h-31.93c-2.89,0-5.24-2.34-5.24-5.24v-195.09c0-2.89-2.34-5.24-5.24-5.24h-66.19c-2.89,0-5.24-2.34-5.24-5.24v-26.16c0-2.89,2.34-5.24,5.24-5.24Z"/>
        <path d="M894.52,127.67h185.59c2.89,0,5.24,2.34,5.24,5.24v26.16c0,2.89-2.34,5.24-5.24,5.24h-66.53c-2.89,0-5.24,2.34-5.24,5.24v195.09c0,2.89-2.34,5.24-5.24,5.24h-31.93c-2.89,0-5.24-2.34-5.24-5.24v-195.09c0-2.89-2.34-5.24-5.24-5.24h-66.19c-2.89,0-5.24-2.34-5.24-5.24v-26.16c0-2.89,2.34-5.24,5.24-5.24Z"/>
        <path d="M1119.25,289.13c2.76,0,5.04,2.15,5.22,4.9.47,7.19,2,13.47,4.59,18.84,3.16,6.56,7.57,11.93,13.23,16.11,5.65,4.19,12.15,7.24,19.5,9.16,7.35,1.92,15.32,2.88,23.91,2.88,9.27,0,17.18-1.07,23.74-3.22,6.56-2.15,11.87-4.92,15.94-8.31s7.01-7.29,8.82-11.7c1.81-4.41,2.71-8.87,2.71-13.4,0-9.27-2.09-16.11-6.28-20.52-4.19-4.41-8.77-7.52-13.74-9.33-8.6-3.16-18.6-6.16-30.02-8.99-11.42-2.82-25.5-6.5-42.23-11.02-10.4-2.71-19.05-6.28-25.95-10.69-6.9-4.41-12.38-9.33-16.45-14.76s-6.95-11.19-8.65-17.3c-1.7-6.11-2.54-12.32-2.54-18.66,0-12.21,2.54-22.78,7.63-31.72,5.09-8.93,11.81-16.33,20.18-22.22,8.36-5.88,17.86-10.23,28.49-13.06,10.63-2.83,21.37-4.24,32.22-4.24,12.66,0,24.59,1.64,35.79,4.92,11.19,3.28,21.03,8.2,29.51,14.76,8.48,6.56,15.21,14.64,20.18,24.25,4.23,8.18,6.66,17.46,7.3,27.84.18,3.02-2.21,5.57-5.23,5.57h-32.28c-2.62,0-4.83-1.94-5.18-4.53-1.77-13.22-6.93-22.74-15.48-28.54-9.5-6.44-21.6-9.67-36.29-9.67-4.98,0-10.06.51-15.26,1.53-5.2,1.02-9.95,2.71-14.25,5.09-4.3,2.37-7.86,5.6-10.68,9.67-2.83,4.07-4.24,9.16-4.24,15.26,0,8.6,2.66,15.32,7.97,20.18,5.31,4.87,12.26,8.54,20.86,11.02.9.23,4.46,1.19,10.68,2.88,6.22,1.7,13.17,3.56,20.86,5.6,7.69,2.04,15.21,4.02,22.56,5.94,7.35,1.92,12.6,3.34,15.77,4.24,7.91,2.49,14.81,5.88,20.69,10.18,5.88,4.3,10.8,9.22,14.76,14.76,3.95,5.54,6.89,11.48,8.82,17.81,1.92,6.33,2.88,12.67,2.88,19,0,13.57-2.77,25.16-8.31,34.77-5.54,9.61-12.84,17.47-21.88,23.57-9.05,6.11-19.33,10.57-30.87,13.4-11.53,2.83-23.29,4.24-35.28,4.24-13.8,0-26.8-1.7-39.01-5.09-12.21-3.39-22.84-8.59-31.88-15.6-9.05-7.01-16.28-16-21.71-26.97-4.75-9.6-7.51-20.72-8.28-33.35-.18-2.99,2.24-5.49,5.23-5.49h31.9Z"/>
        <path d="M1578.06,204.67c-2.31,0-4.34-1.53-5.01-3.74-1.68-5.57-3.82-10.77-6.41-15.59-3.17-5.88-7.24-10.97-12.21-15.26-4.98-4.29-10.8-7.63-17.47-10.01-6.67-2.37-14.42-3.56-23.24-3.56-12.89,0-24.03,2.6-33.41,7.8-9.39,5.21-17.02,12.16-22.9,20.86-5.88,8.71-10.23,18.6-13.06,29.68-2.83,11.08-4.24,22.39-4.24,33.92s1.41,22.84,4.24,33.92c2.83,11.08,7.18,20.98,13.06,29.68,5.88,8.71,13.51,15.66,22.9,20.86,9.38,5.2,20.52,7.8,33.41,7.8,9.5,0,17.86-1.64,25.1-4.92,7.24-3.28,13.45-7.8,18.66-13.57,5.2-5.77,9.27-12.49,12.21-20.18,2.43-6.36,4.17-13.11,5.21-20.25.38-2.58,2.57-4.51,5.18-4.51h31.07c3.09,0,5.54,2.67,5.21,5.74-1.3,12.25-4.25,23.56-8.85,33.94-5.32,11.99-12.5,22.33-21.54,31.04-9.05,8.71-19.67,15.43-31.88,20.18-12.21,4.75-25.67,7.12-40.37,7.12-18.09,0-34.32-3.34-48.68-10.01-14.36-6.67-26.52-15.77-36.46-27.31-9.95-11.53-17.58-24.98-22.9-40.37-5.32-15.38-7.97-31.77-7.97-49.18s2.66-33.46,7.97-48.85c5.31-15.38,12.94-28.83,22.9-40.37,9.95-11.53,22.1-20.69,36.46-27.48,14.36-6.78,30.58-10.18,48.68-10.18,13.57,0,26.34,1.87,38.33,5.6,11.98,3.73,22.56,9.16,31.72,16.28,9.16,7.12,16.56,15.77,22.22,25.95,4.76,8.57,8,18.18,9.71,28.83.51,3.2-1.93,6.11-5.17,6.11h-32.47Z"/>
        <path d="M1778.94,330.85c0,4.75.62,8.14,1.87,10.18,1.24,2.04,3.67,3.05,7.29,3.05h4.07s.03,0,.05,0c2.95,0,5.38,2.28,5.38,5.23v16.98c0,2.35-1.56,4.42-3.83,5.05-.45.12-.93.25-1.42.38-2.15.56-4.36,1.07-6.61,1.53-2.26.45-4.53.79-6.78,1.02-2.26.22-4.19.34-5.77.34-7.92,0-14.47-1.58-19.67-4.75-3.5-2.13-6.18-5.33-8.04-9.61-1.35-3.11-5.28-4.04-7.98-1.99-6.48,4.93-13.97,8.68-22.48,11.26-11.19,3.39-22,5.09-32.39,5.09-7.92,0-15.49-1.08-22.73-3.22-7.24-2.15-13.63-5.31-19.17-9.5-5.54-4.18-9.95-9.5-13.23-15.94-3.28-6.44-4.92-13.96-4.92-22.56,0-10.85,1.98-19.67,5.94-26.46,3.95-6.78,9.16-12.09,15.6-15.94,6.45-3.84,13.68-6.61,21.71-8.31,7.97-1.68,16-2.98,24.08-3.88.11-.01.23-.03.34-.05,6.94-1.34,13.56-2.29,19.84-2.85,6.33-.56,11.92-1.53,16.79-2.88,4.86-1.36,8.7-3.45,11.53-6.28,2.83-2.82,4.24-7.06,4.24-12.72,0-4.97-1.19-9.04-3.56-12.21-2.38-3.16-5.32-5.6-8.82-7.29-3.51-1.7-7.41-2.83-11.7-3.39-4.3-.56-8.37-.85-12.21-.85-10.85,0-19.79,2.26-26.8,6.78-5.93,3.83-9.68,9.43-11.24,16.81-.52,2.44-2.63,4.22-5.13,4.22h-28.42c-3.14,0-5.61-2.76-5.2-5.88,1.15-8.72,3.68-16.15,7.58-22.28,4.75-7.46,10.8-13.45,18.15-17.98,7.35-4.52,15.66-7.69,24.93-9.5,9.27-1.81,18.77-2.71,28.49-2.71,8.59,0,17.07.91,25.44,2.71,8.36,1.81,15.88,4.75,22.56,8.82,6.67,4.07,12.04,9.33,16.11,15.77,4.07,6.44,6.11,14.3,6.11,23.57v90.23ZM1740.28,290.54c0-3.67-3.68-6.23-7.1-4.89-4.33,1.71-9.21,2.81-14.61,3.31-8.6.79-17.19,1.98-25.78,3.56-4.07.68-8.03,1.64-11.87,2.88-3.85,1.25-7.24,2.94-10.18,5.09-2.94,2.15-5.26,4.98-6.95,8.48-1.7,3.51-2.54,7.75-2.54,12.72,0,4.3,1.24,7.92,3.73,10.85,2.49,2.94,5.48,5.26,8.99,6.95,3.5,1.7,7.35,2.88,11.53,3.56,4.18.68,7.97,1.02,11.36,1.02,4.29,0,8.93-.56,13.91-1.7,4.97-1.13,9.67-3.05,14.08-5.77,4.41-2.71,8.08-6.16,11.02-10.35,2.94-4.18,4.41-9.33,4.41-15.43v-20.3Z"/>
        <path d="M1815.9,194.49h25.82c2.89,0,5.24,2.34,5.24,5.24v28.69h.68c1.13-4.75,3.33-9.38,6.61-13.91,3.28-4.52,7.24-8.65,11.87-12.38,4.63-3.73,9.78-6.73,15.43-8.99,5.65-2.26,11.42-3.39,17.3-3.39,4.52,0,7.63.12,9.33.34.23.03.47.06.71.09,2.6.35,4.55,2.56,4.55,5.19v26.63c0,3.15-2.77,5.61-5.9,5.19-.8-.11-1.61-.21-2.41-.31-2.83-.34-5.6-.51-8.31-.51-6.56,0-12.72,1.3-18.49,3.9-5.77,2.6-10.8,6.44-15.09,11.53-4.3,5.09-7.69,11.36-10.18,18.83-2.49,7.46-3.73,16.06-3.73,25.78v78.21c0,2.89-2.34,5.24-5.24,5.24h-28.2c-2.89,0-5.24-2.34-5.24-5.24v-164.9c0-2.89,2.34-5.24,5.24-5.24Z"/>
        <path d="M2080.92,369.86h-26.16c-2.89,0-5.24-2.34-5.24-5.24v-18.51h-.68c-5.21,10.18-12.78,17.47-22.73,21.88-9.95,4.41-20.47,6.61-31.55,6.61-13.8,0-25.84-2.43-36.12-7.29-10.29-4.86-18.83-11.47-25.61-19.84-6.78-8.36-11.87-18.26-15.26-29.68-3.39-11.42-5.09-23.69-5.09-36.8,0-15.83,2.15-29.51,6.45-41.04,4.29-11.53,10.01-21.03,17.13-28.49,7.12-7.46,15.26-12.94,24.42-16.45,9.16-3.5,18.49-5.26,27.98-5.26,5.43,0,10.97.51,16.62,1.53,5.65,1.02,11.08,2.66,16.28,4.92,5.2,2.26,10.01,5.15,14.42,8.65,4.41,3.51,8.08,7.63,11.02,12.38h.68v-84.31c0-2.89,2.34-5.24,5.24-5.24h28.2c2.89,0,5.24,2.34,5.24,5.24v231.72c0,2.89-2.34,5.24-5.24,5.24ZM1951.15,284.04c0,7.46.96,14.81,2.88,22.05,1.92,7.24,4.86,13.69,8.82,19.33,3.95,5.65,8.99,10.18,15.09,13.57,6.11,3.39,13.34,5.09,21.71,5.09s16-1.81,22.22-5.43c6.22-3.61,11.3-8.36,15.26-14.25,3.95-5.88,6.9-12.49,8.82-19.84,1.92-7.35,2.88-14.87,2.88-22.56,0-19.45-4.36-34.6-13.06-45.45-8.71-10.85-20.52-16.28-35.45-16.28-9.05,0-16.68,1.87-22.9,5.6-6.22,3.73-11.31,8.6-15.26,14.59-3.96,5.99-6.78,12.78-8.48,20.35-1.7,7.58-2.54,15.32-2.54,23.24Z"/>
        <path d="M2131.85,313.55c2.53,0,4.68,1.81,5.14,4.3,1.71,9.04,5.8,15.52,12.28,19.45,7.46,4.53,16.39,6.78,26.8,6.78,3.61,0,7.74-.28,12.38-.85,4.63-.56,8.99-1.64,13.06-3.22,4.07-1.58,7.4-3.9,10.01-6.95,2.6-3.05,3.78-7.06,3.56-12.04-.23-4.97-2.04-9.04-5.43-12.21-3.39-3.16-7.75-5.71-13.06-7.63-5.32-1.92-11.36-3.56-18.15-4.92-6.78-1.36-13.68-2.82-20.69-4.41-7.24-1.58-14.19-3.5-20.86-5.77-6.67-2.26-12.67-5.31-17.98-9.16-5.32-3.84-9.56-8.76-12.72-14.76-3.17-5.99-4.75-13.4-4.75-22.22,0-9.5,2.32-17.47,6.95-23.91,4.63-6.44,10.52-11.64,17.64-15.6,7.12-3.95,15.04-6.73,23.74-8.31,8.7-1.58,17.01-2.37,24.93-2.37,9.04,0,17.69.96,25.95,2.88,8.25,1.92,15.71,5.04,22.39,9.33,6.67,4.3,12.21,9.9,16.62,16.79,3.42,5.35,5.85,11.54,7.3,18.59.67,3.27-1.78,6.35-5.12,6.35h-30.13c-2.32,0-4.35-1.54-5.02-3.76-2.15-7.21-6.08-12.18-11.8-14.9-6.67-3.16-14.3-4.75-22.9-4.75-2.71,0-5.94.23-9.67.68-3.73.46-7.24,1.3-10.52,2.54-3.28,1.25-6.05,3.05-8.31,5.43-2.26,2.37-3.39,5.49-3.39,9.33,0,4.75,1.64,8.6,4.92,11.53,3.28,2.94,7.57,5.37,12.89,7.29,5.31,1.92,11.36,3.56,18.15,4.92s13.79,2.83,21.03,4.41c7.01,1.58,13.91,3.51,20.69,5.77,6.78,2.26,12.83,5.32,18.15,9.16,5.31,3.85,9.61,8.71,12.89,14.59,3.28,5.88,4.92,13.12,4.92,21.71,0,10.4-2.38,19.22-7.12,26.46-4.75,7.24-10.91,13.12-18.49,17.64-7.58,4.53-16,7.8-25.27,9.84-9.28,2.04-18.43,3.05-27.48,3.05-11.08,0-21.32-1.25-30.7-3.73-9.39-2.49-17.53-6.28-24.42-11.36-6.9-5.09-12.33-11.42-16.28-19-3.22-6.15-5.2-13.24-5.95-21.26-.29-3.06,2.14-5.71,5.22-5.71h28.59Z"/>
      </g>
    </g>
  </g>
</svg>